<?xml version="1.0" encoding="UTF-8" standalone="no"?>
<!-- Created with Inkscape (http://www.inkscape.org/) -->

<svg
   width="100mm"
   height="100mm"
   viewBox="0 0 100 100"
   version="1.1"
   id="svg5"
   inkscape:version="1.2 (dc2aeda, 2022-05-15)"
   sodipodi:docname="logo.svg"
   xmlns:inkscape="http://www.inkscape.org/namespaces/inkscape"
   xmlns:sodipodi="http://sodipodi.sourceforge.net/DTD/sodipodi-0.dtd"
   xmlns="http://www.w3.org/2000/svg"
   xmlns:svg="http://www.w3.org/2000/svg">
  <sodipodi:namedview
     id="namedview7"
     pagecolor="#ffffff"
     bordercolor="#000000"
     borderopacity="0.25"
     inkscape:showpageshadow="2"
     inkscape:pageopacity="0.0"
     inkscape:pagecheckerboard="0"
     inkscape:deskcolor="#d1d1d1"
     inkscape:document-units="mm"
     showgrid="false"
     inkscape:zoom="0.65476833"
     inkscape:cx="-66.435712"
     inkscape:cy="167.23472"
     inkscape:window-width="1440"
     inkscape:window-height="771"
     inkscape:window-x="0"
     inkscape:window-y="25"
     inkscape:window-maximized="0"
     inkscape:current-layer="layer1" />
  <defs
     id="defs2" />
  <g
     inkscape:groupmode="layer"
     id="layer2"
     inkscape:label="Layer 2">
    <rect
       style="fill:#008080;fill-opacity:1;stroke-width:2.87486"
       id="rect717"
       width="100"
       height="100"
       x="3.5527137e-15"
       y="-3.5527137e-15" />
  </g>
  <g
     inkscape:label="Layer 1"
     inkscape:groupmode="layer"
     id="layer1"
     style="display:inline">
    <g
       id="g3482">
      <g
         id="g3340"
         transform="matrix(0.73709322,0,0,0.73709322,13.145325,10.526499)">
        <path
           id="path2518"
           style="fill:none;stroke:#000000;stroke-width:3.8;stroke-opacity:1"
           d="M 38.868438,15.8713 A 11.294888,11.480049 0 0 1 49.859153,7.037522 11.294888,11.480049 0 0 1 60.849868,15.871299" />
        <g
           id="g3317">
          <rect
             style="fill:none;stroke:#000000;stroke-width:3.8;stroke-opacity:1"
             id="rect408"
             width="46.660847"
             height="23.700747"
             x="-7.7262564"
             y="12.591023" />
          <g
             id="g3308">
            <path
               id="path3296"
               style="fill:none;stroke:#000000;stroke-width:3.8;stroke-dasharray:none;stroke-opacity:1"
               d="M 15.92901,29.563187 A 18.516209,10.924563 0 0 0 34.127899,20.631949 H -2.2750467 A 18.516209,10.924563 0 0 0 15.92901,29.563187 Z" />
            <circle
               style="fill:#000000;stroke:#000000;stroke-width:2.17075;stroke-dasharray:none;stroke-opacity:1"
               id="path3304"
               cx="15.134715"
               cy="22.905582"
               r="2.9083054" />
          </g>
        </g>
        <g
           id="g3327"
           transform="translate(68.791704)">
          <rect
             style="fill:none;stroke:#000000;stroke-width:3.8;stroke-opacity:1"
             id="rect3319"
             width="46.660847"
             height="23.700747"
             x="-7.7262564"
             y="12.591023" />
          <g
             id="g3325">
            <path
               id="path3321"
               style="fill:none;stroke:#000000;stroke-width:3.8;stroke-dasharray:none;stroke-opacity:1"
               d="M 15.92901,29.563187 A 18.516209,10.924563 0 0 0 34.127899,20.631949 H -2.2750467 A 18.516209,10.924563 0 0 0 15.92901,29.563187 Z" />
            <circle
               style="fill:#000000;stroke:#000000;stroke-width:2.17075;stroke-dasharray:none;stroke-opacity:1"
               id="circle3323"
               cx="15.134715"
               cy="22.905582"
               r="2.9083054" />
          </g>
        </g>
      </g>
      <path
         id="path3365"
         style="fill:none;stroke:#000000;stroke-width:2.5119;stroke-linecap:round;stroke-dasharray:none;stroke-opacity:1"
         d="m 53.814932,47.312579 a 3.8863379,6.5541366 0 0 1 -3.814933,5.303529 3.8863379,6.5541366 0 0 1 -3.814932,-5.303529" />
      <g
         id="g3430"
         transform="matrix(0.73709322,0,0,0.73709322,15.043667,10.526499)">
        <path
           id="path3409"
           style="fill:none;stroke:#000000;stroke-width:3.8;stroke-linecap:round;stroke-dasharray:none;stroke-opacity:1"
           d="M 11.791297,92.939087 A 13.958082,26.124087 72.845448 0 1 8.3258626,88.428864 13.958082,26.124087 72.845448 0 1 12.794214,76.672583" />
        <path
           id="path3404"
           style="fill:none;stroke:#000000;stroke-width:3.92043;stroke-linecap:round;stroke-dasharray:none;stroke-opacity:1"
           d="M 13.348839,75.952154 A 39.352307,16.912122 17.163557 0 1 55.03608,75.097386 39.352307,16.912122 17.163557 0 1 86.802987,100.00812" />
      </g>
    </g>
  </g>
</svg>
