<?xml version="1.0" standalone="no"?>
<!DOCTYPE svg PUBLIC "-//W3C//DTD SVG 20010904//EN"
 "http://www.w3.org/TR/2001/REC-SVG-20010904/DTD/svg10.dtd">
<svg version="1.0" xmlns="http://www.w3.org/2000/svg"
 width="700.000000pt" height="700.000000pt" viewBox="0 0 700.000000 700.000000"
 preserveAspectRatio="xMidYMid meet">
<metadata>
Created by potrace 1.14, written by Peter Selinger 2001-2017
</metadata>
<g transform="translate(0.000000,700.000000) scale(0.100000,-0.100000)"
fill="#000000" stroke="none">
<path d="M3384 5990 c-142 -26 -266 -92 -376 -202 l-78 -78 -1255 0 -1255 0 2
-707 3 -708 1303 -3 1302 -2 0 588 0 589 32 64 c38 77 134 176 204 212 126 64
274 74 397 27 127 -48 241 -167 286 -301 20 -61 21 -77 21 -621 l0 -558 1303
2 1302 3 3 708 2 707 -1262 0 -1263 0 -90 88 c-97 94 -186 147 -300 177 -74
20 -213 27 -281 15z m-554 -985 l0 -515 -1105 0 -1105 0 0 515 0 515 1105 0
1105 0 0 -515z m3550 0 l0 -515 -1105 0 -1105 0 0 515 0 515 1105 0 1105 0 0
-515z"/>
<path d="M670 5297 c0 -2 14 -45 30 -97 90 -279 347 -460 765 -538 140 -26
437 -23 580 6 334 66 595 225 694 420 24 48 71 184 71 206 0 3 -481 6 -1070 6
-588 0 -1070 -1 -1070 -3z m832 -247 c5 -55 36 -103 90 -142 28 -19 46 -23
109 -23 64 0 81 4 111 25 47 32 86 92 94 146 l6 44 301 0 c169 0 297 -4 292
-9 -137 -123 -306 -198 -534 -236 -82 -14 -140 -17 -280 -12 -154 4 -191 9
-295 36 -144 37 -300 111 -371 175 l-50 45 261 1 261 0 5 -50z"/>
<path d="M4220 5296 c0 -20 65 -196 85 -231 113 -192 374 -340 710 -403 140
-26 437 -23 580 6 321 64 571 209 680 396 24 42 85 205 85 228 0 5 -481 8
-1070 8 -588 0 -1070 -2 -1070 -4z m830 -252 c22 -106 106 -169 215 -162 101
6 162 61 186 166 l12 52 294 0 c161 0 293 -3 293 -6 0 -10 -41 -42 -112 -90
-111 -74 -269 -128 -447 -155 -122 -17 -392 -7 -508 20 -170 39 -322 108 -408
186 l-50 44 257 1 257 0 11 -56z"/>
<path d="M3210 3773 c-40 -15 -60 -46 -60 -93 0 -108 68 -276 144 -353 67 -70
117 -92 206 -92 89 0 139 22 206 92 76 77 144 245 144 353 0 59 -32 94 -87 94
-50 0 -76 -33 -92 -120 -26 -141 -98 -244 -171 -244 -73 0 -145 103 -171 244
-8 41 -21 79 -34 92 -21 25 -60 37 -85 27z"/>
<path d="M2386 2690 c-265 -30 -463 -93 -616 -195 -108 -72 -269 -267 -334
-406 -102 -215 -88 -408 43 -582 45 -60 145 -137 177 -137 37 0 78 25 92 55
24 53 16 73 -61 149 -94 92 -120 145 -120 246 0 135 66 262 218 415 81 82 114
108 175 138 96 46 220 82 362 104 152 24 529 23 710 0 821 -108 1617 -438
2087 -865 180 -163 311 -377 311 -508 0 -67 84 -123 141 -94 58 30 72 88 48
201 -133 619 -1297 1296 -2513 1460 -171 23 -587 34 -720 19z"/>
</g>
</svg>
